<svg width="367" height="261" viewBox="0 0 367 261" fill="none" xmlns="http://www.w3.org/2000/svg">
<g clip-path="url(#clip0_1_2553)">
<mask id="mask0_1_2553" style="mask-type:luminance" maskUnits="userSpaceOnUse" x="-1" y="8" width="369" height="261">
<rect x="-0.034668" y="8.87842" width="367.22" height="260" transform="rotate(0.0158183 -0.034668 8.87842)" fill="white"/>
</mask>
<g mask="url(#mask0_1_2553)">
<g clip-path="url(#clip1_1_2553)">
<path d="M336.767 250.608C336.767 251.528 336.6 252.324 336.268 252.994C335.935 253.664 335.479 254.181 334.899 254.545C334.32 254.908 333.658 255.09 332.914 255.09C332.169 255.09 331.507 254.908 330.928 254.544C330.348 254.18 329.893 253.663 329.56 252.992C329.228 252.322 329.062 251.526 329.063 250.606C329.063 249.685 329.229 248.89 329.562 248.22C329.894 247.549 330.35 247.032 330.93 246.669C331.51 246.305 332.172 246.124 332.916 246.124C333.66 246.124 334.322 246.306 334.902 246.67C335.481 247.034 335.937 247.551 336.269 248.221C336.601 248.892 336.767 249.687 336.767 250.608ZM335.744 250.608C335.745 249.852 335.618 249.214 335.366 248.694C335.116 248.174 334.776 247.781 334.347 247.513C333.921 247.246 333.444 247.113 332.916 247.112C332.387 247.112 331.909 247.246 331.48 247.513C331.053 247.78 330.714 248.173 330.461 248.693C330.211 249.213 330.085 249.85 330.085 250.606C330.085 251.362 330.21 252 330.46 252.519C330.712 253.039 331.052 253.433 331.478 253.7C331.907 253.967 332.385 254.101 332.914 254.101C333.442 254.101 333.92 253.968 334.346 253.701C334.775 253.434 335.114 253.041 335.365 252.521C335.618 252.001 335.744 251.363 335.744 250.608ZM341.066 255.109C340.452 255.109 339.924 254.964 339.48 254.674C339.037 254.384 338.697 253.985 338.458 253.476C338.22 252.968 338.1 252.387 338.101 251.733C338.101 251.068 338.223 250.482 338.468 249.973C338.715 249.462 339.059 249.063 339.499 248.776C339.942 248.487 340.459 248.342 341.05 248.342C341.511 248.342 341.925 248.427 342.295 248.598C342.664 248.769 342.966 249.007 343.202 249.314C343.438 249.621 343.584 249.979 343.641 250.388L342.635 250.388C342.558 250.09 342.388 249.825 342.124 249.595C341.863 249.362 341.51 249.246 341.067 249.245C340.675 249.245 340.331 249.347 340.036 249.552C339.743 249.754 339.514 250.039 339.349 250.408C339.187 250.775 339.106 251.205 339.106 251.699C339.106 252.205 339.186 252.645 339.345 253.021C339.506 253.396 339.734 253.687 340.026 253.894C340.321 254.102 340.668 254.206 341.066 254.206C341.327 254.206 341.564 254.16 341.777 254.069C341.991 253.979 342.171 253.848 342.319 253.678C342.467 253.507 342.572 253.303 342.634 253.064L343.64 253.064C343.583 253.451 343.442 253.799 343.218 254.108C342.996 254.415 342.702 254.659 342.335 254.841C341.972 255.02 341.548 255.109 341.066 255.109ZM347.958 248.429L347.958 249.281L344.566 249.28L344.566 248.428L347.958 248.429ZM345.555 246.86L346.561 246.861L346.559 253.099C346.559 253.383 346.6 253.596 346.682 253.738C346.768 253.878 346.876 253.971 347.006 254.02C347.14 254.065 347.28 254.088 347.428 254.088C347.539 254.088 347.63 254.082 347.701 254.071C347.772 254.057 347.829 254.046 347.871 254.037L348.076 254.941C348.007 254.966 347.912 254.992 347.79 255.017C347.668 255.046 347.513 255.06 347.325 255.06C347.041 255.06 346.763 254.998 346.49 254.876C346.22 254.754 345.996 254.568 345.817 254.318C345.641 254.068 345.553 253.752 345.553 253.372L345.555 246.86Z" fill="#808D9E"/>
<path fill-rule="evenodd" clip-rule="evenodd" d="M337.842 237.972L337.893 54.9717L339.113 54.972L339.062 237.972L337.842 237.972Z" fill="#E9ECF2"/>
</g>
<g clip-path="url(#clip2_1_2553)">
<path d="M280.844 248.411C280.793 247.979 280.586 247.644 280.222 247.405C279.859 247.166 279.413 247.047 278.884 247.047C278.498 247.046 278.16 247.109 277.87 247.234C277.583 247.359 277.358 247.531 277.196 247.749C277.037 247.968 276.958 248.217 276.958 248.495C276.958 248.728 277.013 248.928 277.124 249.096C277.237 249.261 277.382 249.398 277.558 249.509C277.734 249.617 277.919 249.707 278.112 249.778C278.305 249.846 278.483 249.902 278.645 249.944L279.531 250.183C279.758 250.243 280.011 250.325 280.289 250.431C280.571 250.536 280.839 250.679 281.095 250.861C281.353 251.04 281.566 251.27 281.734 251.552C281.901 251.833 281.985 252.178 281.985 252.587C281.985 253.059 281.861 253.485 281.614 253.866C281.369 254.246 281.011 254.549 280.54 254.773C280.071 254.997 279.501 255.109 278.831 255.109C278.206 255.109 277.665 255.008 277.207 254.806C276.753 254.604 276.395 254.323 276.134 253.962C275.875 253.601 275.729 253.182 275.695 252.705L276.786 252.705C276.814 253.035 276.925 253.307 277.118 253.523C277.314 253.737 277.561 253.896 277.86 254.001C278.161 254.103 278.484 254.154 278.831 254.155C279.234 254.155 279.597 254.089 279.918 253.959C280.239 253.825 280.493 253.641 280.681 253.405C280.868 253.166 280.962 252.888 280.962 252.57C280.962 252.28 280.881 252.044 280.719 251.862C280.558 251.681 280.345 251.533 280.08 251.419C279.816 251.305 279.531 251.206 279.224 251.121L278.15 250.813C277.468 250.617 276.929 250.337 276.531 249.974C276.133 249.61 275.935 249.134 275.935 248.546C275.935 248.057 276.067 247.631 276.332 247.267C276.599 246.901 276.957 246.617 277.406 246.416C277.857 246.211 278.362 246.109 278.919 246.109C279.481 246.109 279.981 246.21 280.418 246.412C280.856 246.611 281.202 246.884 281.458 247.231C281.716 247.577 281.853 247.971 281.867 248.411L280.844 248.411ZM286.33 255.094C285.699 255.094 285.155 254.955 284.698 254.676C284.243 254.395 283.893 254.003 283.646 253.5C283.401 252.994 283.279 252.406 283.28 251.735C283.28 251.065 283.402 250.474 283.646 249.963C283.894 249.449 284.238 249.048 284.678 248.761C285.121 248.472 285.638 248.327 286.229 248.327C286.57 248.327 286.907 248.384 287.239 248.498C287.572 248.612 287.874 248.796 288.147 249.052C288.419 249.305 288.637 249.64 288.798 250.058C288.96 250.476 289.041 250.99 289.041 251.601L289.041 252.027L283.995 252.025L283.996 251.156L288.018 251.157C288.018 250.788 287.945 250.458 287.797 250.168C287.652 249.879 287.445 249.65 287.175 249.482C286.908 249.314 286.593 249.231 286.229 249.23C285.829 249.23 285.482 249.33 285.189 249.528C284.899 249.724 284.676 249.98 284.52 250.295C284.364 250.611 284.285 250.949 284.285 251.309L284.285 251.889C284.285 252.383 284.37 252.802 284.541 253.146C284.714 253.487 284.954 253.747 285.26 253.926C285.567 254.102 285.924 254.191 286.33 254.191C286.594 254.191 286.833 254.154 287.046 254.08C287.262 254.003 287.448 253.89 287.604 253.739C287.761 253.586 287.881 253.396 287.967 253.168L288.938 253.441C288.836 253.771 288.664 254.061 288.422 254.311C288.181 254.558 287.882 254.751 287.527 254.89C287.172 255.026 286.773 255.094 286.33 255.094ZM290.569 257.413L290.572 248.413L291.543 248.414L291.543 249.454L291.662 249.454C291.736 249.34 291.838 249.195 291.969 249.019C292.103 248.84 292.293 248.681 292.54 248.542C292.79 248.4 293.128 248.329 293.555 248.329C294.106 248.329 294.592 248.467 295.012 248.743C295.432 249.019 295.76 249.409 295.996 249.915C296.232 250.421 296.349 251.017 296.349 251.705C296.349 252.398 296.231 252.999 295.995 253.507C295.759 254.013 295.432 254.405 295.015 254.683C294.597 254.959 294.115 255.096 293.57 255.096C293.149 255.096 292.813 255.026 292.56 254.887C292.307 254.745 292.113 254.584 291.976 254.405C291.84 254.223 291.735 254.073 291.661 253.954L291.576 253.954L291.575 257.414L290.569 257.413ZM291.559 251.686C291.559 252.181 291.632 252.617 291.776 252.995C291.921 253.37 292.133 253.664 292.411 253.877C292.689 254.087 293.03 254.193 293.434 254.193C293.854 254.193 294.205 254.082 294.486 253.861C294.77 253.636 294.984 253.335 295.126 252.957C295.271 252.577 295.343 252.153 295.343 251.688C295.344 251.227 295.273 250.812 295.131 250.443C294.992 250.071 294.78 249.777 294.496 249.561C294.215 249.342 293.861 249.233 293.435 249.232C293.026 249.232 292.682 249.336 292.404 249.543C292.125 249.748 291.915 250.035 291.773 250.404C291.631 250.77 291.56 251.198 291.559 251.686Z" fill="#808D9E"/>
<path fill-rule="evenodd" clip-rule="evenodd" d="M285.382 237.958L285.433 54.9575L286.653 54.9579L286.602 237.958L285.382 237.958Z" fill="#E9ECF2"/>
</g>
<g clip-path="url(#clip3_1_2553)">
<path d="M221.915 254.94L220.807 254.94L224.014 246.213L225.105 246.214L228.307 254.942L227.199 254.941L224.593 247.594L224.525 247.594L221.915 254.94ZM222.325 251.531L226.791 251.532L226.791 252.47L222.325 252.469L222.325 251.531ZM233.656 252.267L233.657 248.398L234.662 248.398L234.661 254.944L233.655 254.943L233.655 253.835L233.587 253.835C233.434 254.168 233.195 254.45 232.871 254.683C232.547 254.913 232.138 255.028 231.644 255.028C231.234 255.028 230.871 254.938 230.553 254.759C230.235 254.577 229.985 254.304 229.803 253.941C229.621 253.574 229.53 253.113 229.531 252.556L229.532 248.397L230.537 248.397L230.536 252.488C230.536 252.965 230.67 253.346 230.937 253.63C231.206 253.914 231.55 254.056 231.968 254.056C232.218 254.056 232.472 253.993 232.731 253.865C232.992 253.737 233.211 253.541 233.387 253.277C233.566 253.013 233.656 252.676 233.656 252.267ZM239.144 257.536C238.658 257.536 238.241 257.473 237.891 257.348C237.542 257.226 237.251 257.064 237.018 256.862C236.788 256.663 236.604 256.45 236.468 256.222L237.269 255.66C237.36 255.779 237.475 255.916 237.614 256.069C237.754 256.226 237.944 256.361 238.185 256.474C238.43 256.591 238.749 256.649 239.144 256.649C239.673 256.649 240.109 256.522 240.453 256.266C240.796 256.011 240.968 255.61 240.968 255.065L240.969 253.735L240.884 253.735C240.81 253.854 240.705 254.002 240.568 254.178C240.435 254.351 240.241 254.506 239.988 254.642C239.738 254.776 239.4 254.843 238.974 254.842C238.446 254.842 237.971 254.717 237.551 254.467C237.133 254.217 236.803 253.853 236.558 253.376C236.317 252.899 236.196 252.319 236.197 251.637C236.197 250.967 236.315 250.383 236.551 249.886C236.787 249.386 237.115 249 237.536 248.727C237.956 248.452 238.442 248.314 238.993 248.314C239.419 248.314 239.757 248.385 240.007 248.527C240.26 248.667 240.453 248.826 240.587 249.005C240.723 249.181 240.828 249.326 240.902 249.44L241.004 249.44L241.004 248.4L241.976 248.4L241.974 255.133C241.974 255.696 241.846 256.153 241.59 256.505C241.337 256.86 240.996 257.12 240.567 257.285C240.141 257.452 239.667 257.536 239.144 257.536ZM239.111 253.939C239.514 253.939 239.855 253.847 240.134 253.662C240.412 253.478 240.624 253.212 240.769 252.866C240.914 252.519 240.986 252.104 240.986 251.621C240.987 251.15 240.916 250.734 240.774 250.373C240.632 250.012 240.422 249.729 240.143 249.525C239.865 249.32 239.521 249.218 239.112 249.217C238.686 249.217 238.331 249.325 238.047 249.541C237.765 249.757 237.554 250.047 237.412 250.41C237.272 250.774 237.202 251.177 237.202 251.62C237.202 252.075 237.273 252.477 237.415 252.826C237.56 253.173 237.773 253.446 238.054 253.645C238.338 253.841 238.69 253.939 239.111 253.939Z" fill="#808D9E"/>
<path fill-rule="evenodd" clip-rule="evenodd" d="M230.482 237.942L230.533 54.9424L231.753 54.9427L231.702 237.943L230.482 237.942Z" fill="#E9ECF2"/>
</g>
<g clip-path="url(#clip4_1_2553)">
<path d="M175.47 246.199L176.526 246.2L176.525 252.438C176.525 252.995 176.422 253.468 176.218 253.857C176.013 254.246 175.724 254.542 175.352 254.743C174.98 254.945 174.541 255.046 174.035 255.046C173.558 255.045 173.133 254.959 172.761 254.785C172.389 254.609 172.097 254.359 171.884 254.035C171.671 253.711 171.564 253.326 171.564 252.88L172.604 252.88C172.604 253.128 172.665 253.343 172.787 253.528C172.912 253.71 173.083 253.852 173.298 253.954C173.514 254.057 173.76 254.108 174.036 254.108C174.34 254.108 174.598 254.044 174.811 253.916C175.024 253.789 175.186 253.601 175.297 253.354C175.411 253.104 175.468 252.799 175.468 252.438L175.47 246.199ZM182.631 252.252L182.632 248.383L183.638 248.383L183.636 254.929L182.631 254.929L182.631 253.821L182.563 253.821C182.409 254.153 182.171 254.436 181.847 254.668C181.523 254.898 181.114 255.013 180.619 255.013C180.21 255.013 179.847 254.924 179.528 254.744C179.21 254.563 178.96 254.29 178.779 253.926C178.597 253.56 178.506 253.098 178.506 252.541L178.507 248.382L179.513 248.382L179.512 252.473C179.512 252.95 179.645 253.331 179.912 253.615C180.182 253.899 180.526 254.042 180.943 254.042C181.193 254.042 181.448 253.978 181.706 253.85C181.968 253.722 182.186 253.526 182.363 253.262C182.542 252.998 182.631 252.662 182.631 252.252ZM186.486 246.202L186.484 254.93L185.478 254.929L185.481 246.202L186.486 246.202Z" fill="#808D9E"/>
<path fill-rule="evenodd" clip-rule="evenodd" d="M178.022 237.927L178.073 54.9272L180.513 54.9279L180.462 237.928L178.022 237.927Z" fill="#E9ECF2"/>
<path opacity="0.1" fill-rule="evenodd" clip-rule="evenodd" d="M156.062 237.921L156.113 54.9214L204.913 54.9349L204.862 237.935L156.062 237.921Z" fill="url(#paint0_linear_1_2553)"/>
</g>
<g clip-path="url(#clip5_1_2553)">
<path d="M122.754 246.185L123.81 246.186L123.809 252.424C123.809 252.981 123.706 253.454 123.502 253.843C123.297 254.232 123.008 254.528 122.636 254.729C122.264 254.931 121.825 255.032 121.319 255.032C120.842 255.031 120.417 254.945 120.045 254.771C119.673 254.595 119.381 254.345 119.168 254.021C118.955 253.697 118.848 253.312 118.848 252.866L119.888 252.866C119.888 253.113 119.949 253.329 120.071 253.514C120.196 253.696 120.367 253.838 120.582 253.94C120.798 254.043 121.044 254.094 121.32 254.094C121.624 254.094 121.882 254.03 122.095 253.902C122.308 253.775 122.47 253.587 122.581 253.34C122.695 253.09 122.752 252.785 122.752 252.424L122.754 246.185ZM129.915 252.238L129.916 248.369L130.922 248.369L130.92 254.915L129.915 254.915L129.915 253.807L129.847 253.807C129.693 254.139 129.454 254.422 129.131 254.654C128.807 254.884 128.397 254.999 127.903 254.999C127.494 254.999 127.13 254.91 126.812 254.73C126.494 254.549 126.244 254.276 126.063 253.912C125.881 253.546 125.79 253.084 125.79 252.527L125.791 248.368L126.797 248.368L126.796 252.459C126.796 252.936 126.929 253.317 127.196 253.601C127.466 253.885 127.81 254.028 128.227 254.028C128.477 254.028 128.732 253.964 128.99 253.836C129.252 253.708 129.47 253.512 129.647 253.248C129.826 252.984 129.915 252.648 129.915 252.238ZM133.769 250.978L133.768 254.916L132.762 254.915L132.764 248.37L133.736 248.37L133.735 249.393L133.821 249.393C133.974 249.061 134.207 248.794 134.52 248.592C134.832 248.388 135.236 248.285 135.73 248.285C136.173 248.286 136.561 248.377 136.893 248.559C137.226 248.738 137.484 249.01 137.669 249.377C137.853 249.741 137.945 250.201 137.945 250.758L137.944 254.917L136.938 254.916L136.939 250.826C136.94 250.311 136.806 249.911 136.539 249.624C136.272 249.334 135.906 249.189 135.44 249.189C135.119 249.189 134.832 249.258 134.579 249.397C134.329 249.537 134.132 249.74 133.987 250.007C133.842 250.274 133.769 250.597 133.769 250.978Z" fill="#808D9E"/>
<path fill-rule="evenodd" clip-rule="evenodd" d="M130.442 237.915L130.493 54.9146L131.713 54.9149L131.662 237.915L130.442 237.915Z" fill="#E9ECF2"/>
</g>
<g clip-path="url(#clip6_1_2553)">
<path d="M62.2149 246.168L63.4762 246.169L66.4402 253.414L66.5424 253.414L69.5103 246.17L70.7717 246.171L70.7693 254.898L69.7807 254.898L69.7825 248.267L69.6973 248.267L66.9682 254.897L66.0136 254.897L63.2882 248.265L63.2029 248.265L63.2011 254.896L62.2125 254.896L62.2149 246.168ZM74.678 255.052C74.2632 255.052 73.8868 254.974 73.5488 254.818C73.2108 254.659 72.9424 254.43 72.7436 254.131C72.5448 253.83 72.4455 253.467 72.4456 253.04C72.4457 252.665 72.5196 252.361 72.6674 252.129C72.8152 251.893 73.0127 251.708 73.2599 251.575C73.5071 251.441 73.7799 251.342 74.0782 251.277C74.3793 251.209 74.6819 251.155 74.9859 251.115C75.3836 251.064 75.7061 251.026 75.9532 251C76.2033 250.972 76.3851 250.925 76.4987 250.86C76.6152 250.794 76.6735 250.681 76.6735 250.519L76.6736 250.485C76.6737 250.064 76.5587 249.738 76.3287 249.505C76.1015 249.272 75.7563 249.155 75.2932 249.155C74.8131 249.155 74.4367 249.26 74.1639 249.47C73.8911 249.68 73.6993 249.904 73.5884 250.143L72.634 249.802C72.8045 249.404 73.0319 249.095 73.316 248.873C73.603 248.649 73.9156 248.493 74.2537 248.405C74.5946 248.314 74.9299 248.268 75.2594 248.269C75.4696 248.269 75.7111 248.294 75.9838 248.345C76.2594 248.394 76.525 248.495 76.7806 248.648C77.0391 248.802 77.2535 249.033 77.4239 249.343C77.5942 249.653 77.6794 250.067 77.6792 250.587L77.678 254.9L76.6723 254.9L76.6726 254.013L76.6214 254.013C76.5532 254.155 76.4395 254.307 76.2804 254.469C76.1213 254.631 75.9096 254.769 75.6454 254.882C75.3811 254.996 75.0587 255.053 74.678 255.052ZM74.8316 254.149C75.2294 254.149 75.5646 254.071 75.8374 253.915C76.113 253.759 76.3204 253.557 76.4597 253.31C76.6018 253.063 76.6729 252.803 76.673 252.53L76.6732 251.61C76.6306 251.661 76.5369 251.708 76.392 251.75C76.2499 251.79 76.0851 251.826 75.8976 251.857C75.7129 251.885 75.5325 251.911 75.3564 251.933C75.1831 251.953 75.0425 251.97 74.9345 251.984C74.6731 252.018 74.4288 252.074 74.2015 252.15C73.9771 252.224 73.7952 252.336 73.656 252.487C73.5196 252.635 73.4513 252.836 73.4512 253.092C73.4512 253.441 73.5803 253.706 73.8388 253.885C74.1001 254.061 74.4311 254.149 74.8316 254.149ZM79.9263 257.355C79.7558 257.355 79.6038 257.341 79.4703 257.312C79.3368 257.287 79.2445 257.261 79.1934 257.235L79.4493 256.349C79.6936 256.412 79.9095 256.435 80.097 256.418C80.2845 256.401 80.4507 256.317 80.5956 256.166C80.7434 256.019 80.8784 255.779 81.0007 255.446L81.1883 254.935L78.7697 248.355L79.8606 248.355L81.666 253.571L81.7341 253.571L83.5424 248.356L84.6333 248.356L81.8528 255.856C81.7277 256.194 81.5728 256.473 81.3881 256.695C81.2034 256.919 80.9889 257.085 80.7445 257.193C80.503 257.301 80.2303 257.355 79.9263 257.355Z" fill="#808D9E"/>
<path fill-rule="evenodd" clip-rule="evenodd" d="M74.3359 237.899L74.3864 54.8989L75.5787 54.8993L75.5282 237.899L74.3359 237.899Z" fill="#E9ECF2"/>
</g>
<g clip-path="url(#clip7_1_2553)">
<path d="M12.9497 234.363L10.1234 242.137L8.96908 242.137L12.2234 233.607L12.9675 233.607L12.9497 234.363ZM15.3148 242.139L12.4869 234.363L12.4695 233.607L13.2136 233.607L16.4749 242.139L15.3148 242.139ZM15.1692 238.981L15.1689 239.906L10.3759 239.905L10.3762 238.979L15.1692 238.981ZM18.6246 237.019L18.6225 244.577L17.5326 244.577L17.5351 235.8L18.5312 235.8L18.6246 237.019ZM22.8955 238.918L22.8955 239.041C22.8954 239.502 22.8406 239.93 22.7311 240.324C22.6216 240.715 22.4613 241.055 22.2503 241.344C22.0432 241.633 21.7873 241.857 21.4826 242.017C21.1778 242.178 20.8282 242.258 20.4337 242.257C20.0313 242.257 19.6759 242.191 19.3673 242.058C19.0588 241.925 18.7971 241.732 18.5823 241.478C18.3675 241.224 18.1958 240.919 18.0669 240.563C17.942 240.208 17.8562 239.807 17.8095 239.362L17.8096 238.706C17.8567 238.237 17.9447 237.817 18.0737 237.446C18.2027 237.075 18.3727 236.759 18.5837 236.497C18.7986 236.232 19.0584 236.03 19.3632 235.894C19.6679 235.753 20.0195 235.683 20.4179 235.683C20.8163 235.683 21.1698 235.762 21.4784 235.918C21.7869 236.07 22.0466 236.289 22.2575 236.574C22.4684 236.86 22.6265 237.201 22.7318 237.6C22.8411 237.994 22.8957 238.434 22.8955 238.918ZM21.8056 239.041L21.8057 238.918C21.8058 238.602 21.7726 238.305 21.7063 238.027C21.64 237.746 21.5365 237.5 21.396 237.289C21.2593 237.074 21.0836 236.906 20.8688 236.785C20.654 236.66 20.3981 236.597 20.1012 236.597C19.8278 236.597 19.5895 236.644 19.3864 236.738C19.1871 236.831 19.0172 236.958 18.8765 237.118C18.7358 237.275 18.6205 237.454 18.5306 237.657C18.4446 237.856 18.3801 238.063 18.3371 238.278L18.3367 239.796C18.4147 240.069 18.524 240.327 18.6646 240.569C18.8052 240.808 18.9926 241.001 19.2269 241.15C19.4613 241.294 19.7562 241.367 20.1116 241.367C20.4046 241.367 20.6566 241.306 20.8676 241.185C21.0824 241.06 21.2583 240.89 21.395 240.676C21.5357 240.461 21.6393 240.215 21.7058 239.937C21.7723 239.656 21.8056 239.357 21.8056 239.041ZM25.4486 236.798L25.4471 242.142L24.3632 242.141L24.3649 235.801L25.4196 235.802L25.4486 236.798ZM27.4294 235.767L27.4232 236.775C27.3334 236.755 27.2475 236.744 27.1654 236.74C27.0873 236.732 26.9975 236.728 26.8959 236.728C26.6459 236.728 26.4252 236.767 26.2338 236.845C26.0423 236.923 25.8802 237.032 25.7473 237.173C25.6145 237.314 25.509 237.481 25.4308 237.677C25.3565 237.868 25.3076 238.079 25.2841 238.31L24.9794 238.485C24.9795 238.102 25.0167 237.743 25.091 237.407C25.1693 237.071 25.2885 236.774 25.4487 236.517C25.6089 236.255 25.8121 236.052 26.0582 235.907C26.3083 235.759 26.6052 235.685 26.9489 235.685C27.0271 235.685 27.1169 235.695 27.2185 235.714C27.32 235.73 27.3903 235.748 27.4294 235.767Z" fill="#92929D"/>
<path fill-rule="evenodd" clip-rule="evenodd" d="M19.4365 237.884L19.487 54.8838L20.6793 54.8841L20.6288 237.884L19.4365 237.884Z" fill="#F1F1F5"/>
</g>
<g filter="url(#filter0_d_1_2553)">
<path d="M188.06 62.9302C188.062 56.3028 193.436 50.9317 200.063 50.9335L248.063 50.9467C254.691 50.9486 260.062 56.3226 260.06 62.9501L260.056 76.9501C260.054 83.5775 254.68 88.9486 248.053 88.9467L188.053 88.9302L188.06 62.9302Z" fill="white"/>
</g>
<path d="M222.581 75.0789C221.842 75.0787 221.186 74.9543 220.613 74.7055C220.042 74.4568 219.595 74.1169 219.27 73.686C218.949 73.2517 218.79 72.7595 218.794 72.2093C218.79 71.7817 218.883 71.389 219.072 71.0311C219.261 70.6732 219.517 70.375 219.838 70.1364C220.163 69.8945 220.524 69.7405 220.922 69.6744L220.922 69.6047C220.399 69.4886 219.974 69.2217 219.65 68.804C219.328 68.383 219.169 67.8974 219.173 67.3472C219.17 66.8235 219.316 66.3562 219.611 65.9453C219.906 65.5344 220.31 65.2114 220.824 64.9762C221.338 64.7377 221.924 64.6185 222.584 64.6187C223.237 64.6189 223.819 64.7384 224.329 64.9771C224.843 65.2126 225.247 65.5359 225.542 65.9469C225.84 66.358 225.989 66.8254 225.989 67.349C225.989 67.8992 225.824 68.3847 225.496 68.8056C225.171 69.2231 224.752 69.4898 224.238 69.6057L224.238 69.6753C224.636 69.7417 224.994 69.8959 225.312 70.1379C225.633 70.3766 225.888 70.675 226.077 71.033C226.269 71.391 226.365 71.7838 226.365 72.2114C226.365 72.7616 226.203 73.2537 225.878 73.6878C225.553 74.1186 225.105 74.4582 224.535 74.7066C223.968 74.955 223.317 75.0791 222.581 75.0789ZM222.582 73.6571C222.963 73.6572 223.294 73.5926 223.576 73.4634C223.858 73.3309 224.076 73.1454 224.232 72.9068C224.388 72.6682 224.468 72.3931 224.471 72.0816C224.468 71.7568 224.384 71.4701 224.218 71.2214C224.056 70.9695 223.832 70.7722 223.547 70.6296C223.265 70.487 222.944 70.4157 222.582 70.4156C222.218 70.4155 221.893 70.4866 221.608 70.6291C221.323 70.7715 221.097 70.9687 220.932 71.2205C220.769 71.4691 220.69 71.7557 220.693 72.0805C220.689 72.3921 220.766 72.6672 220.921 72.9059C221.077 73.1413 221.296 73.3253 221.577 73.4579C221.862 73.5906 222.197 73.6569 222.582 73.6571ZM222.583 69.0186C222.894 69.0186 223.169 68.9557 223.408 68.8299C223.65 68.704 223.841 68.5284 223.98 68.303C224.119 68.0777 224.191 67.8175 224.194 67.5226C224.191 67.2309 224.121 66.9757 223.985 66.7569C223.85 66.5348 223.661 66.364 223.419 66.2446C223.177 66.1219 222.899 66.0606 222.584 66.0605C222.262 66.0604 221.979 66.1216 221.733 66.2442C221.491 66.3634 221.302 66.5341 221.167 66.7561C221.034 66.9748 220.969 67.23 220.972 67.5217C220.969 67.8166 221.035 68.0768 221.171 68.3023C221.31 68.5244 221.501 68.7001 221.743 68.8294C221.988 68.9554 222.268 69.0185 222.583 69.0186ZM227.999 74.9412L227.999 73.6088L231.535 70.1446C231.873 69.8033 232.155 69.5001 232.381 69.235C232.606 68.97 232.775 68.7131 232.888 68.4646C233.001 68.216 233.057 67.9509 233.057 67.6692C233.057 67.3477 232.984 67.0726 232.839 66.8438C232.693 66.6118 232.492 66.4328 232.237 66.3067C231.982 66.1807 231.692 66.1177 231.367 66.1176C231.032 66.1175 230.739 66.187 230.487 66.3261C230.235 66.462 230.04 66.6558 229.9 66.9077C229.764 67.1595 229.696 67.4594 229.696 67.8075L227.941 67.807C227.941 67.1607 228.089 66.5989 228.384 66.1217C228.679 65.6445 229.085 65.2751 229.603 65.0134C230.123 64.7517 230.72 64.6209 231.392 64.6211C232.075 64.6213 232.675 64.7491 233.192 65.0044C233.709 65.2598 234.11 65.6096 234.395 66.0538C234.683 66.498 234.827 67.0051 234.827 67.5752C234.827 67.9564 234.754 68.3309 234.608 68.6987C234.462 69.0666 234.205 69.4742 233.837 69.9215C233.472 70.3689 232.96 70.9106 232.3 71.5468L230.545 73.3311L230.545 73.4007L234.98 73.402L234.979 74.9431L227.999 74.9412ZM240.458 75.1386C239.639 75.1383 238.936 74.931 238.35 74.5165C237.767 74.0987 237.318 73.4971 237.003 72.7115C236.692 71.9225 236.536 70.9729 236.537 69.8626C236.54 68.7523 236.698 67.8077 237.01 67.0289C237.325 66.2468 237.774 65.6504 238.357 65.2395C238.944 64.8287 239.645 64.6234 240.461 64.6236C241.276 64.6239 241.977 64.8295 242.563 65.2407C243.15 65.6518 243.599 66.2486 243.91 67.0308C244.225 67.8131 244.382 68.7578 244.382 69.8648C244.381 70.9784 244.224 71.9296 243.909 72.7183C243.597 73.5038 243.148 74.1035 242.561 74.5177C241.977 74.9318 241.276 75.1388 240.458 75.1386ZM240.458 73.5824C241.095 73.5826 241.597 73.2695 241.965 72.6432C242.336 72.0136 242.522 71.0873 242.522 69.8643C242.523 69.0556 242.438 68.3761 242.269 67.8258C242.101 67.2756 241.862 66.8612 241.554 66.5827C241.246 66.3009 240.881 66.16 240.46 66.1599C239.827 66.1597 239.327 66.4744 238.959 67.104C238.59 67.7304 238.405 68.6501 238.401 69.8631C238.397 70.6752 238.478 71.3579 238.644 71.9115C238.813 72.465 239.051 72.8827 239.36 73.1645C239.668 73.443 240.034 73.5823 240.458 73.5824Z" fill="#1D1E25"/>
<rect x="199.06" y="65.0757" width="10" height="10" rx="2" transform="rotate(0.0158183 199.06 65.0757)" fill="#2280FF"/>
<path d="M-8.96331 148.763C-4.46502 150.61 6.17001 155.759 12.7238 161.577C20.916 168.849 47.4246 176.818 63.3359 159.514C79.2471 142.21 86.4791 135.981 98.0474 135.984C109.616 135.987 117.329 133.566 130.348 115.569C143.367 97.5723 147.614 88.8768 163.614 88.9238C179.082 88.9691 186.909 99.6613 190.603 105.547L199.275 119.05C202.808 124.705 212.31 134.284 226.224 135.307C240.138 136.331 250.837 131.158 261.936 122.529C272.272 114.492 290.379 105.921 305.799 122.541C318.135 135.837 324.432 140.547 326.039 141.24" stroke="#2280FF" stroke-width="3" stroke-linecap="round"/>
<path d="M-32.9652 155.49C-27.755 156.837 -15.4368 160.589 -7.84544 164.827C1.64374 170.124 32.3472 175.932 50.7737 163.33C69.2002 150.728 77.5755 146.191 90.9741 146.195C104.373 146.199 113.306 144.436 128.383 131.329C143.46 118.222 148.377 111.888 166.909 111.924C184.824 111.959 193.89 119.748 198.169 124.036L208.215 133.872C212.308 137.992 223.314 144.97 239.429 145.717C255.545 146.465 267.936 142.698 280.79 136.414C292.76 130.561 313.731 124.32 331.593 136.428C345.882 146.114 353.176 149.545 355.036 150.05" stroke="#FF5555" stroke-width="3" stroke-linecap="round"/>
</g>
<rect x="-0.0463867" y="50.8784" width="59.78" height="203" transform="rotate(0.0158183 -0.0463867 50.8784)" fill="white"/>
<path d="M15.5126 60.1552L15.5101 68.8824L14.4533 68.8822L14.4554 61.2628L14.4043 61.2628L12.2732 62.677L12.2735 61.6031L14.4557 60.1549L15.5126 60.1552ZM19.061 66.4971L19.0443 65.2527L19.2488 65.2528L22.1133 62.3388L23.3576 62.3392L20.3056 65.4235L20.2204 65.4235L19.061 66.4971ZM18.1228 68.8832L18.1253 60.1559L19.1309 60.1562L19.1285 68.8834L18.1228 68.8832ZM22.2819 68.8843L19.726 65.645L20.4421 64.9463L23.5603 68.8847L22.2819 68.8843Z" fill="#808D9E"/>
<path d="M22.5615 239.004C21.9194 239.003 21.3726 238.829 20.921 238.479C20.4694 238.127 20.1244 237.617 19.8859 236.949C19.6474 236.278 19.5284 235.469 19.5286 234.52C19.5289 233.577 19.6484 232.771 19.8872 232.104C20.1289 231.433 20.4756 230.922 20.9274 230.57C21.3821 230.215 21.9276 230.038 22.5639 230.038C23.2003 230.038 23.7443 230.216 24.1959 230.571C24.6503 230.923 24.9968 231.435 25.2352 232.105C25.4765 232.773 25.5971 233.578 25.5968 234.522C25.5965 235.47 25.477 236.28 25.2382 236.95C24.9994 237.618 24.654 238.128 24.2022 238.48C23.7504 238.829 23.2035 239.004 22.5615 239.004ZM22.5617 238.066C23.1981 238.066 23.6925 237.76 24.0449 237.146C24.3974 236.533 24.5738 235.658 24.5741 234.521C24.5743 233.766 24.4935 233.122 24.3317 232.591C24.1728 232.059 23.9428 231.655 23.6417 231.376C23.3435 231.098 22.9841 230.958 22.5637 230.958C21.933 230.958 21.44 231.269 21.0847 231.891C20.7295 232.51 20.5517 233.387 20.5513 234.52C20.5511 235.276 20.6305 235.918 20.7894 236.446C20.9484 236.975 21.177 237.377 21.4752 237.653C21.7763 237.928 22.1384 238.066 22.5617 238.066Z" fill="#808D9E"/>
<g clip-path="url(#clip8_1_2553)">
<path d="M2.6446 204.879L2.64481 204.112L5.52636 200.959C5.86453 200.59 6.14303 200.269 6.36185 199.997C6.58068 199.721 6.74268 199.463 6.84786 199.221C6.95589 198.977 7.00993 198.721 7.01001 198.454C7.01009 198.147 6.9363 197.882 6.78864 197.657C6.64381 197.433 6.445 197.259 6.19219 197.137C5.93938 197.015 5.65531 196.954 5.33997 196.954C5.00474 196.954 4.71211 197.023 4.46207 197.162C4.21487 197.299 4.02306 197.49 3.88663 197.737C3.75303 197.985 3.68619 198.274 3.6861 198.607L2.68042 198.606C2.68056 198.095 2.79858 197.646 3.03448 197.26C3.27039 196.874 3.59149 196.573 3.9978 196.357C4.40695 196.141 4.86579 196.033 5.37431 196.033C5.88568 196.033 6.33877 196.142 6.7336 196.358C7.12842 196.574 7.438 196.865 7.66233 197.231C7.88666 197.598 7.99877 198.006 7.99864 198.454C7.99856 198.776 7.94023 199.089 7.82367 199.396C7.70995 199.7 7.51099 200.04 7.2268 200.415C6.94544 200.787 6.55469 201.241 6.05454 201.778L4.09374 203.874L4.09372 203.942L8.15054 203.943L8.15028 204.881L2.6446 204.879ZM12.8425 205.001C12.2004 205.001 11.6536 204.826 11.202 204.477C10.7504 204.124 10.4054 203.614 10.1669 202.947C9.92847 202.276 9.80938 201.466 9.80964 200.517C9.8099 199.574 9.92944 198.769 10.1683 198.101C10.4099 197.431 10.7567 196.92 11.2085 196.568C11.6631 196.213 12.2086 196.035 12.845 196.035C13.4813 196.036 14.0253 196.213 14.4769 196.569C14.9314 196.921 15.2778 197.432 15.5163 198.103C15.7576 198.771 15.8781 199.576 15.8778 200.519C15.8776 201.468 15.758 202.278 15.5192 202.948C15.2804 203.616 14.9351 204.125 14.4833 204.478C14.0315 204.827 13.4845 205.001 12.8425 205.001ZM12.8428 204.064C13.4791 204.064 13.9735 203.757 14.326 203.144C14.6784 202.53 14.8548 201.655 14.8551 200.519C14.8553 199.763 14.7745 199.12 14.6127 198.588C14.4538 198.057 14.2238 197.652 13.9227 197.374C13.6245 197.095 13.2652 196.956 12.8447 196.956C12.214 196.956 11.721 197.267 11.3658 197.889C11.0105 198.508 10.8327 199.384 10.8324 200.518C10.8322 201.273 10.9115 201.916 11.0705 202.444C11.2294 202.972 11.458 203.374 11.7562 203.65C12.0573 203.926 12.4195 204.064 12.8428 204.064ZM20.4282 205.003C19.7862 205.003 19.2393 204.828 18.7877 204.479C18.3361 204.126 17.9911 203.616 17.7526 202.949C17.5142 202.278 17.3951 201.468 17.3954 200.52C17.3956 199.576 17.5152 198.771 17.754 198.103C17.9956 197.433 18.3424 196.922 18.7942 196.57C19.2488 196.215 19.7943 196.037 20.4307 196.037C21.067 196.038 21.611 196.215 22.0626 196.571C22.5171 196.923 22.8635 197.434 23.102 198.105C23.3433 198.773 23.4638 199.578 23.4635 200.521C23.4633 201.47 23.3437 202.28 23.1049 202.95C22.8661 203.618 22.5208 204.128 22.069 204.48C21.6172 204.829 21.0703 205.004 20.4282 205.003ZM20.4285 204.066C21.0648 204.066 21.5592 203.759 21.9117 203.146C22.2641 202.532 22.4405 201.657 22.4408 200.521C22.441 199.765 22.3602 199.122 22.1984 198.591C22.0395 198.059 21.8095 197.654 21.5084 197.376C21.2102 197.097 20.8509 196.958 20.4304 196.958C19.7997 196.958 19.3068 197.269 18.9515 197.891C18.5962 198.51 18.4184 199.386 18.4181 200.52C18.4179 201.276 18.4972 201.918 18.6562 202.446C18.8151 202.975 19.0437 203.377 19.3419 203.652C19.643 203.928 20.0052 204.066 20.4285 204.066Z" fill="#808D9E"/>
</g>
<g clip-path="url(#clip9_1_2553)">
<path d="M2.44982 169.089L2.45006 168.22L6.28697 162.153L6.91765 162.153L6.91728 163.5L6.49114 163.5L3.59215 168.084L3.59213 168.152L8.7569 168.154L8.75664 169.091L2.44982 169.089ZM6.55728 170.88L6.55785 168.826L6.55796 168.421L6.55969 162.153L7.56537 162.153L7.56297 170.881L6.55728 170.88ZM13.2854 171.001C12.6433 171.001 12.0965 170.826 11.6449 170.477C11.1933 170.124 10.8482 169.614 10.6098 168.947C10.3713 168.276 10.2522 167.466 10.2525 166.518C10.2528 165.574 10.3723 164.769 10.6111 164.102C10.8528 163.431 11.1995 162.92 11.6513 162.568C12.106 162.213 12.6515 162.035 13.2878 162.035C13.9242 162.036 14.4682 162.213 14.9198 162.569C15.3742 162.921 15.7207 163.432 15.9591 164.103C16.2004 164.771 16.321 165.576 16.3207 166.519C16.3204 167.468 16.2009 168.278 15.9621 168.948C15.7232 169.616 15.3779 170.126 14.9261 170.478C14.4743 170.827 13.9274 171.002 13.2854 171.001ZM13.2856 170.064C13.922 170.064 14.4164 169.757 14.7688 169.144C15.1213 168.53 15.2977 167.655 15.298 166.519C15.2982 165.763 15.2174 165.12 15.0556 164.589C14.8967 164.057 14.6667 163.652 14.3656 163.374C14.0674 163.095 13.708 162.956 13.2876 162.956C12.6569 162.956 12.1639 163.267 11.8086 163.889C11.4534 164.508 11.2756 165.384 11.2752 166.518C11.275 167.274 11.3544 167.916 11.5133 168.444C11.6723 168.973 11.9009 169.375 12.1991 169.65C12.5002 169.926 12.8623 170.064 13.2856 170.064ZM20.8711 171.004C20.229 171.003 19.6822 170.828 19.2306 170.479C18.779 170.127 18.434 169.616 18.1955 168.949C17.9571 168.278 17.838 167.469 17.8382 166.52C17.8385 165.577 17.958 164.771 18.1968 164.104C18.4385 163.433 18.7852 162.922 19.237 162.57C19.6917 162.215 20.2372 162.037 20.8736 162.038C21.5099 162.038 22.0539 162.215 22.5055 162.571C22.96 162.923 23.3064 163.435 23.5449 164.105C23.7862 164.773 23.9067 165.578 23.9064 166.521C23.9061 167.47 23.7866 168.28 23.5478 168.95C23.309 169.618 22.9637 170.128 22.5118 170.48C22.06 170.829 21.5131 171.004 20.8711 171.004ZM20.8713 170.066C21.5077 170.066 22.0021 169.759 22.3545 169.146C22.707 168.532 22.8834 167.657 22.8837 166.521C22.8839 165.765 22.8031 165.122 22.6413 164.591C22.4824 164.059 22.2524 163.654 21.9513 163.376C21.6531 163.097 21.2938 162.958 20.8733 162.958C20.2426 162.958 19.7496 163.269 19.3943 163.891C19.0391 164.51 18.8613 165.386 18.861 166.52C18.8607 167.276 18.9401 167.918 19.0991 168.446C19.258 168.975 19.4866 169.377 19.7848 169.652C20.0859 169.928 20.448 170.066 20.8713 170.066Z" fill="#808D9E"/>
</g>
<g clip-path="url(#clip10_1_2553)">
<path d="M5.56133 136.999C5.20338 136.993 4.84545 136.925 4.48753 136.794C4.12961 136.664 3.80297 136.443 3.5076 136.134C3.21223 135.821 2.97513 135.399 2.7963 134.868C2.61747 134.334 2.52816 133.663 2.52839 132.856C2.5286 132.084 2.60123 131.399 2.74628 130.802C2.89134 130.203 3.1017 129.699 3.37738 129.29C3.65307 128.878 3.98554 128.566 4.3748 128.353C4.76691 128.14 5.2087 128.033 5.70017 128.033C6.18881 128.034 6.62344 128.132 7.00407 128.328C7.38754 128.521 7.69996 128.791 7.94135 129.138C8.18273 129.484 8.33887 129.884 8.40977 130.335L7.36999 130.335C7.27351 129.943 7.0861 129.618 6.80776 129.359C6.52942 129.1 6.16014 128.971 5.69991 128.971C5.02378 128.971 4.49103 129.265 4.10166 129.853C3.71513 130.441 3.5203 131.266 3.51717 132.328L3.58535 132.328C3.74451 132.087 3.93349 131.881 4.15228 131.711C4.37392 131.537 4.61828 131.404 4.88535 131.31C5.15242 131.216 5.4351 131.17 5.7334 131.17C6.2334 131.17 6.69075 131.295 7.10545 131.545C7.52016 131.792 7.85245 132.135 8.10233 132.572C8.35221 133.007 8.47707 133.506 8.47692 134.068C8.47677 134.608 8.35589 135.102 8.11429 135.551C7.87269 135.997 7.5331 136.352 7.09553 136.616C6.6608 136.877 6.1494 137.005 5.56133 136.999ZM5.56159 136.062C5.91955 136.062 6.2406 135.972 6.52474 135.794C6.81172 135.615 7.03764 135.375 7.20249 135.074C7.37019 134.772 7.45409 134.437 7.45419 134.068C7.45429 133.707 7.37341 133.379 7.21156 133.084C7.05255 132.785 6.83245 132.548 6.55125 132.372C6.27289 132.195 5.95473 132.107 5.59678 132.107C5.32689 132.107 5.07545 132.161 4.84247 132.269C4.60949 132.374 4.4049 132.519 4.22871 132.703C4.05537 132.888 3.91895 133.1 3.81945 133.338C3.71995 133.574 3.67017 133.823 3.67009 134.084C3.67 134.431 3.75087 134.754 3.91272 135.056C4.07741 135.357 4.30178 135.6 4.58582 135.785C4.8727 135.969 5.19796 136.062 5.56159 136.062ZM13.0842 137.001C12.4421 137.001 11.8953 136.826 11.4437 136.477C10.9921 136.124 10.6471 135.614 10.4086 134.947C10.1702 134.276 10.0511 133.466 10.0513 132.518C10.0516 131.574 10.1711 130.769 10.41 130.101C10.6516 129.431 10.9984 128.92 11.4502 128.568C11.9048 128.213 12.4503 128.035 13.0867 128.035C13.723 128.036 14.267 128.213 14.7186 128.569C15.1731 128.921 15.5195 129.432 15.758 130.103C15.9993 130.771 16.1198 131.576 16.1195 132.519C16.1193 133.468 15.9997 134.278 15.7609 134.948C15.5221 135.616 15.1768 136.126 14.725 136.478C14.2732 136.827 13.7262 137.002 13.0842 137.001ZM13.0845 136.064C13.7208 136.064 14.2152 135.757 14.5677 135.144C14.9201 134.53 15.0965 133.655 15.0968 132.519C15.097 131.763 15.0162 131.12 14.8544 130.588C14.6955 130.057 14.4655 129.652 14.1644 129.374C13.8662 129.095 13.5069 128.956 13.0864 128.956C12.4557 128.956 11.9627 129.267 11.6075 129.889C11.2522 130.508 11.0744 131.384 11.0741 132.518C11.0739 133.274 11.1532 133.916 11.3122 134.444C11.4711 134.972 11.6997 135.375 11.9979 135.65C12.299 135.926 12.6612 136.064 13.0845 136.064ZM20.6699 137.003C20.0279 137.003 19.481 136.828 19.0294 136.479C18.5778 136.126 18.2328 135.616 17.9943 134.949C17.7559 134.278 17.6368 133.469 17.6371 132.52C17.6373 131.576 17.7569 130.771 17.9957 130.104C18.2373 129.433 18.5841 128.922 19.0359 128.57C19.4905 128.215 20.036 128.037 20.6724 128.038C21.3087 128.038 21.8527 128.215 22.3043 128.571C22.7588 128.923 23.1052 129.435 23.3437 130.105C23.585 130.773 23.7055 131.578 23.7052 132.521C23.705 133.47 23.5854 134.28 23.3466 134.95C23.1078 135.618 22.7625 136.128 22.3107 136.48C21.8589 136.829 21.312 137.004 20.6699 137.003ZM20.6702 136.066C21.3065 136.066 21.8009 135.759 22.1534 135.146C22.5058 134.532 22.6822 133.657 22.6825 132.521C22.6827 131.765 22.6019 131.122 22.4401 130.591C22.2812 130.059 22.0512 129.654 21.7501 129.376C21.4519 129.097 21.0926 128.958 20.6721 128.958C20.0414 128.958 19.5485 129.269 19.1932 129.891C18.8379 130.51 18.6601 131.386 18.6598 132.52C18.6596 133.276 18.7389 133.918 18.8979 134.446C19.0568 134.975 19.2854 135.377 19.5836 135.652C19.8847 135.928 20.2469 136.066 20.6702 136.066Z" fill="#808D9E"/>
</g>
<g clip-path="url(#clip11_1_2553)">
<path d="M5.46834 102.999C4.88311 102.999 4.3661 102.895 3.91729 102.688C3.47132 102.477 3.12339 102.189 2.87349 101.822C2.6236 101.453 2.50013 101.033 2.5031 100.561C2.50036 100.192 2.5729 99.8507 2.72071 99.5383C2.86853 99.223 3.07031 98.9602 3.32605 98.7501C3.58463 98.5371 3.87302 98.4022 4.19121 98.3455L4.19123 98.2943C3.77364 98.1863 3.44132 97.9518 3.19426 97.5909C2.94721 97.2272 2.82516 96.8139 2.82813 96.3508C2.82541 95.9076 2.93774 95.5113 3.1651 95.162C3.39247 94.8126 3.70505 94.5371 4.10283 94.3355C4.50346 94.1339 4.95945 94.0332 5.47081 94.0333C5.9765 94.0335 6.42817 94.1345 6.82584 94.3363C7.22352 94.5381 7.53594 94.8137 7.76312 95.1632C7.99313 95.5127 8.1095 95.9091 8.11222 96.3522C8.10925 96.8153 7.98272 97.2286 7.73262 97.5922C7.48536 97.9529 7.15717 98.1872 6.74805 98.2951L6.74803 98.3462C7.06336 98.4031 7.34741 98.5381 7.60019 98.7513C7.85298 98.9616 8.05461 99.2244 8.20509 99.5398C8.35557 99.8523 8.43218 100.193 8.43492 100.563C8.43195 101.034 8.30399 101.455 8.05105 101.824C7.80095 102.19 7.45286 102.478 7.00678 102.689C6.56354 102.896 6.05073 102.999 5.46834 102.999ZM5.4686 102.062C5.86348 102.062 6.20441 101.998 6.49138 101.87C6.77835 101.743 6.99999 101.562 7.1563 101.329C7.31261 101.096 7.39224 100.824 7.39516 100.511C7.39241 100.182 7.30727 99.8904 7.13972 99.6375C6.97218 99.3846 6.74354 99.1857 6.45381 99.0407C6.16692 98.8957 5.83881 98.8232 5.46949 98.8231C5.09733 98.823 4.76493 98.8954 4.47227 99.0402C4.18246 99.185 3.95371 99.3838 3.78603 99.6366C3.62119 99.8894 3.54014 100.181 3.54289 100.51C3.53996 100.823 3.61517 101.095 3.76852 101.328C3.9247 101.561 4.14766 101.742 4.4374 101.87C4.72714 101.998 5.07087 102.062 5.4686 102.062ZM5.46974 97.9197C5.78224 97.9198 6.05925 97.8574 6.30076 97.7324C6.54511 97.6075 6.73692 97.4328 6.87619 97.2084C7.01545 96.984 7.08655 96.7213 7.08947 96.4201C7.08671 96.1247 7.01718 95.8676 6.88088 95.6488C6.74458 95.4272 6.5557 95.2566 6.31426 95.1373C6.07282 95.015 5.79158 94.9539 5.47056 94.9538C5.14386 94.9537 4.85833 95.0147 4.61398 95.1368C4.36962 95.256 4.18066 95.4264 4.04707 95.648C3.91349 95.8667 3.84808 96.1238 3.85084 96.4193C3.84791 96.7204 3.9146 96.9832 4.0509 97.2077C4.19005 97.4321 4.38176 97.6069 4.62604 97.732C4.87033 97.857 5.15156 97.9196 5.46974 97.9197ZM12.9997 103.001C12.3577 103.001 11.8108 102.826 11.3592 102.477C10.9076 102.124 10.5626 101.614 10.3242 100.947C10.0857 100.276 9.96661 99.4664 9.96687 98.5175C9.96713 97.5744 10.0867 96.769 10.3255 96.1014C10.5672 95.431 10.9139 94.9198 11.3657 94.5676C11.8203 94.2126 12.3658 94.0352 13.0022 94.0354C13.6386 94.0356 14.1825 94.2133 14.6342 94.5685C15.0886 94.9209 15.435 95.4324 15.6735 96.1029C15.9148 96.7706 16.0353 97.576 16.035 98.5192C16.0348 99.4681 15.9152 100.278 15.6764 100.948C15.4376 101.616 15.0923 102.125 14.6405 102.478C14.1887 102.827 13.6418 103.002 12.9997 103.001ZM13 102.064C13.6363 102.064 14.1307 101.757 14.4832 101.144C14.8356 100.53 15.012 99.6553 15.0123 98.5189C15.0125 97.7632 14.9317 97.1198 14.77 96.5885C14.611 96.0572 14.381 95.6523 14.08 95.3738C13.7817 95.0953 13.4224 94.956 13.0019 94.9559C12.3713 94.9557 11.8783 95.2666 11.523 95.8887C11.1677 96.5079 10.9899 97.3843 10.9896 98.5178C10.9894 99.2735 11.0688 99.9156 11.2277 100.444C11.3866 100.972 11.6152 101.375 11.9134 101.65C12.2145 101.926 12.5767 102.064 13 102.064ZM20.5854 103.003C19.9434 103.003 19.3966 102.828 18.945 102.479C18.4933 102.126 18.1483 101.616 17.9099 100.949C17.6714 100.278 17.5523 99.4685 17.5526 98.5196C17.5528 97.5764 17.6724 96.7711 17.9112 96.1035C18.1529 95.4331 18.4996 94.9219 18.9514 94.5697C19.406 94.2147 19.9515 94.0373 20.5879 94.0375C21.2243 94.0377 21.7683 94.2154 22.2199 94.5706C22.6743 94.923 23.0208 95.4345 23.2592 96.105C23.5005 96.7727 23.621 97.5781 23.6208 98.5213C23.6205 99.4702 23.501 100.28 23.2621 100.95C23.0233 101.618 22.678 102.128 22.2262 102.48C21.7744 102.829 21.2275 103.004 20.5854 103.003ZM20.5857 102.066C21.2221 102.066 21.7165 101.759 22.0689 101.146C22.4213 100.532 22.5977 99.6574 22.598 98.521C22.5982 97.7653 22.5175 97.1218 22.3557 96.5906C22.1967 96.0593 21.9667 95.6544 21.6657 95.3759C21.3674 95.0974 21.0081 94.9581 20.5877 94.958C19.957 94.9578 19.464 95.2687 19.1087 95.8908C18.7534 96.51 18.5756 97.3864 18.5753 98.5199C18.5751 99.2756 18.6545 99.9177 18.8134 100.446C18.9724 100.975 19.2009 101.377 19.4992 101.652C19.8002 101.928 20.1624 102.066 20.5857 102.066Z" fill="#808D9E"/>
</g>
<g filter="url(#filter1_d_1_2553)">
<rect x="172.054" y="84.9258" width="14" height="14" rx="7" transform="rotate(0.0158183 172.054 84.9258)" fill="#2280FF"/>
<rect x="173.054" y="85.9261" width="12" height="12" rx="6" transform="rotate(0.0158183 173.054 85.9261)" stroke="white" stroke-width="2"/>
</g>
<rect x="169.543" y="15.9253" width="12.2" height="10" rx="2" transform="rotate(0.0158183 169.543 15.9253)" fill="#FF5555"/>
<path d="M200.929 18.9338L199.696 18.9334C199.623 18.5788 199.495 18.2672 199.313 17.9986C199.134 17.7301 198.915 17.5047 198.657 17.3223C198.402 17.1367 198.118 16.9974 197.807 16.9045C197.495 16.8116 197.171 16.7651 196.833 16.765C196.216 16.7648 195.658 16.9205 195.157 17.2319C194.66 17.5433 194.264 18.0022 193.968 18.6087C193.677 19.2151 193.531 19.9592 193.53 20.8408C193.53 21.7224 193.676 22.4666 193.967 23.0732C194.262 23.6798 194.658 24.1389 195.155 24.4506C195.655 24.7623 196.214 24.9182 196.83 24.9184C197.168 24.9185 197.493 24.8722 197.805 24.7795C198.116 24.6868 198.4 24.5493 198.655 24.3671C198.914 24.1815 199.132 23.9546 199.311 23.6861C199.494 23.4144 199.622 23.1029 199.695 22.7516L200.927 22.7519C200.835 23.2723 200.665 23.7379 200.42 24.1488C200.175 24.5597 199.87 24.9093 199.505 25.1976C199.14 25.4825 198.731 25.6995 198.277 25.8485C197.826 25.9975 197.344 26.072 196.83 26.0718C195.962 26.0716 195.189 25.8593 194.513 25.4348C193.837 25.0104 193.306 24.407 192.918 23.6247C192.53 22.8424 192.337 21.9143 192.337 20.8405C192.337 19.7666 192.532 18.8386 192.92 18.0565C193.308 17.2745 193.84 16.6714 194.516 16.2473C195.192 15.8233 195.964 15.6114 196.833 15.6116C197.347 15.6117 197.829 15.6864 198.28 15.8357C198.734 15.985 199.143 16.2039 199.507 16.4923C199.872 16.7774 200.177 17.1255 200.422 17.5366C200.667 17.9443 200.836 18.4101 200.929 18.9338ZM205.362 26.0941C204.673 26.0939 204.068 25.9296 203.548 25.6014C203.031 25.2731 202.626 24.814 202.335 24.2239C202.047 23.6339 201.903 22.9444 201.903 22.1556C201.903 21.3602 202.048 20.6658 202.336 20.0726C202.628 19.4794 203.032 19.0189 203.55 18.6909C204.07 18.3629 204.675 18.199 205.364 18.1992C206.054 18.1994 206.657 18.3636 207.174 18.6919C207.694 19.0201 208.098 19.481 208.386 20.0743C208.678 20.6677 208.824 21.3621 208.823 22.1575C208.823 22.9464 208.677 23.6357 208.385 24.2256C208.097 24.8155 207.692 25.2744 207.172 25.6024C206.655 25.9304 206.051 26.0943 205.362 26.0941ZM205.362 25.0401C205.886 25.0402 206.317 24.9061 206.655 24.6377C206.993 24.3694 207.244 24.0165 207.406 23.579C207.569 23.1416 207.65 22.6676 207.65 22.1572C207.65 21.6468 207.569 21.1711 207.407 20.7303C207.245 20.2894 206.994 19.9331 206.656 19.6612C206.319 19.3893 205.888 19.2533 205.364 19.2532C204.84 19.253 204.409 19.3888 204.071 19.6605C203.733 19.9322 203.483 20.2884 203.32 20.7292C203.158 21.1699 203.076 21.6455 203.076 22.1559C203.076 22.6664 203.157 23.1403 203.319 23.5779C203.482 24.0154 203.732 24.3685 204.07 24.637C204.408 24.9056 204.839 25.0399 205.362 25.0401ZM210.113 25.9363L210.115 18.2999L211.249 18.3002L211.249 19.4934L211.348 19.4934C211.507 19.0858 211.764 18.7694 212.119 18.5441C212.474 18.3155 212.9 18.2013 213.397 18.2014C213.901 18.2015 214.32 18.316 214.654 18.5448C214.992 18.7703 215.256 19.0869 215.445 19.4946L215.524 19.4946C215.72 19.1002 216.013 18.7871 216.404 18.5552C216.796 18.32 217.265 18.2025 217.812 18.2026C218.494 18.2028 219.053 18.4167 219.487 18.8444C219.921 19.2688 220.138 19.9301 220.138 20.8283L220.136 25.9391L218.963 25.9387L218.964 20.8279C218.964 20.2645 218.81 19.8617 218.502 19.6197C218.194 19.3777 217.831 19.2566 217.414 19.2565C216.877 19.2563 216.461 19.4186 216.166 19.7434C215.87 20.0648 215.723 20.4724 215.723 20.9662L215.721 25.9378L214.528 25.9375L214.53 20.7074C214.53 20.2732 214.389 19.9235 214.107 19.6583C213.826 19.3897 213.463 19.2554 213.019 19.2553C212.714 19.2552 212.429 19.3363 212.163 19.4986C211.902 19.661 211.689 19.8863 211.527 20.1746C211.368 20.4596 211.288 20.7894 211.288 21.1639L211.287 25.9366L210.113 25.9363ZM221.781 28.8031L221.783 18.3031L222.917 18.3035L222.917 19.5165L223.056 19.5166C223.142 19.384 223.261 19.215 223.414 19.0096C223.57 18.8008 223.792 18.6153 224.08 18.4529C224.372 18.2873 224.766 18.2045 225.264 18.2047C225.907 18.2049 226.473 18.3658 226.964 18.6874C227.454 19.009 227.837 19.4649 228.112 20.0549C228.387 20.6449 228.524 21.341 228.524 22.1431C228.524 22.9518 228.386 23.6527 228.111 24.2459C227.835 24.8358 227.454 25.2931 226.967 25.6178C226.48 25.9392 225.918 26.0997 225.281 26.0996C224.791 26.0994 224.398 26.0181 224.103 25.8556C223.808 25.6898 223.581 25.5025 223.422 25.2937C223.263 25.0815 223.141 24.9058 223.054 24.7666L222.955 24.7665L222.954 28.8035L221.781 28.8031ZM222.936 22.1216C222.936 22.6984 223.02 23.2071 223.189 23.648C223.358 24.0855 223.605 24.4287 223.929 24.6773C224.254 24.9227 224.652 25.0454 225.123 25.0455C225.613 25.0457 226.022 24.9165 226.351 24.6581C226.682 24.3964 226.931 24.0451 227.097 23.6043C227.266 23.1602 227.35 22.6664 227.351 22.1229C227.351 21.5859 227.268 21.102 227.102 20.6711C226.94 20.2369 226.693 19.8938 226.362 19.6418C226.034 19.3865 225.621 19.2588 225.124 19.2586C224.647 19.2585 224.246 19.3793 223.921 19.6212C223.596 19.8598 223.351 20.1944 223.185 20.6253C223.019 21.0528 222.936 21.5516 222.936 22.1216ZM233.014 26.1017C232.278 26.1015 231.644 25.9389 231.11 25.614C230.58 25.2857 230.171 24.8282 229.883 24.2415C229.598 23.6514 229.455 22.9653 229.456 22.1831C229.456 21.4009 229.599 20.7116 229.884 20.115C230.172 19.5152 230.574 19.048 231.087 18.7134C231.604 18.3755 232.208 18.2066 232.897 18.2068C233.295 18.2069 233.688 18.2733 234.075 18.406C234.463 18.5387 234.816 18.7542 235.134 19.0526C235.452 19.3476 235.706 19.7388 235.894 20.2261C236.083 20.7133 236.178 21.3133 236.177 22.0259L236.177 22.523L230.291 22.5214L230.291 21.5072L234.984 21.5085C234.984 21.0776 234.898 20.6931 234.726 20.355C234.557 20.0169 234.315 19.75 234 19.5544C233.689 19.3588 233.321 19.2609 232.897 19.2608C232.43 19.2606 232.025 19.3765 231.684 19.6084C231.346 19.837 231.085 20.1353 230.903 20.5031C230.72 20.871 230.629 21.2653 230.629 21.6863L230.629 22.3624C230.629 22.9391 230.728 23.428 230.927 23.8291C231.129 24.2269 231.409 24.5302 231.767 24.7391C232.125 24.9447 232.541 25.0476 233.015 25.0477C233.323 25.0478 233.601 25.0048 233.85 24.9187C234.102 24.8293 234.319 24.6968 234.501 24.5211C234.684 24.3422 234.824 24.1202 234.924 23.8551L236.057 24.1736C235.938 24.558 235.737 24.896 235.456 25.1876C235.174 25.4759 234.826 25.7012 234.411 25.8635C233.997 26.0224 233.531 26.1018 233.014 26.1017ZM240.784 18.3084L240.784 19.3027L236.827 19.3016L236.827 18.3073L240.784 18.3084ZM237.981 16.4781L239.154 16.4784L239.152 23.7568C239.152 24.0882 239.2 24.3368 239.296 24.5026C239.395 24.665 239.521 24.7744 239.674 24.8308C239.829 24.8839 239.994 24.9104 240.166 24.9105C240.295 24.9105 240.401 24.9039 240.484 24.8907C240.567 24.8741 240.633 24.8609 240.683 24.851L240.921 25.905C240.842 25.9348 240.731 25.9646 240.588 25.9944C240.446 26.0275 240.265 26.044 240.046 26.044C239.715 26.0439 239.39 25.9725 239.072 25.8299C238.757 25.6873 238.495 25.4702 238.287 25.1784C238.081 24.8867 237.978 24.5188 237.979 24.0747L237.981 16.4781ZM242.047 25.9451L242.049 18.3087L243.222 18.3091L243.22 25.9454L242.047 25.9451ZM242.646 17.0362C242.417 17.0361 242.22 16.9582 242.054 16.8024C241.892 16.6465 241.811 16.4592 241.811 16.2405C241.811 16.0217 241.892 15.8345 242.055 15.6788C242.221 15.523 242.418 15.4452 242.646 15.4453C242.875 15.4453 243.071 15.5233 243.233 15.6791C243.399 15.8349 243.482 16.0222 243.481 16.241C243.481 16.4597 243.399 16.6469 243.233 16.8027C243.07 16.9584 242.875 17.0362 242.646 17.0362ZM248.192 18.3104L248.192 19.3048L244.235 19.3037L244.235 18.3093L248.192 18.3104ZM245.389 16.4801L246.562 16.4804L246.56 23.7589C246.56 24.0903 246.608 24.3389 246.704 24.5046C246.804 24.6671 246.929 24.7765 247.082 24.8329C247.238 24.8859 247.402 24.9125 247.574 24.9125C247.703 24.9126 247.809 24.906 247.892 24.8927C247.975 24.8762 248.041 24.863 248.091 24.853L248.329 25.9071C248.25 25.9369 248.139 25.9667 247.996 25.9965C247.854 26.0296 247.673 26.0461 247.454 26.046C247.123 26.0459 246.798 25.9746 246.48 25.832C246.165 25.6894 245.903 25.4722 245.695 25.1805C245.489 24.8888 245.387 24.5208 245.387 24.0767L245.389 16.4801ZM252.475 26.1071C251.786 26.1069 251.181 25.9427 250.661 25.6144C250.144 25.2861 249.74 24.827 249.448 24.2369C249.16 23.6469 249.016 22.9574 249.016 22.1686C249.016 21.3732 249.161 20.6788 249.449 20.0856C249.741 19.4924 250.146 19.0319 250.663 18.7039C251.183 18.3759 251.788 18.212 252.478 18.2122C253.167 18.2124 253.77 18.3766 254.287 18.7049C254.807 19.0331 255.212 19.494 255.5 20.0873C255.791 20.6807 255.937 21.3751 255.937 22.1705C255.936 22.9594 255.79 23.6487 255.499 24.2386C255.21 24.8285 254.806 25.2874 254.285 25.6154C253.768 25.9434 253.165 26.1073 252.475 26.1071ZM252.476 25.0531C252.999 25.0532 253.43 24.9191 253.768 24.6508C254.107 24.3824 254.357 24.0295 254.519 23.592C254.682 23.1546 254.763 22.6806 254.763 22.1702C254.764 21.6598 254.682 21.1842 254.52 20.7433C254.358 20.3024 254.108 19.9461 253.77 19.6742C253.432 19.4023 253.001 19.2663 252.477 19.2662C251.954 19.266 251.523 19.4018 251.185 19.6735C250.846 19.9452 250.596 20.3014 250.434 20.7422C250.271 21.1829 250.19 21.6585 250.19 22.1689C250.189 22.6794 250.27 23.1533 250.433 23.5909C250.595 24.0284 250.845 24.3815 251.183 24.65C251.521 24.9186 251.952 25.053 252.476 25.0531ZM257.227 25.9493L257.229 18.3129L258.362 18.3132L258.362 19.4667L258.442 19.4667C258.581 19.0889 258.833 18.7824 259.197 18.5471C259.562 18.3119 259.973 18.1944 260.431 18.1945C260.517 18.1945 260.624 18.1962 260.754 18.1996C260.883 18.2029 260.981 18.2079 261.047 18.2146L261.047 19.4077C261.007 19.3978 260.916 19.3828 260.773 19.3629C260.634 19.3397 260.487 19.328 260.331 19.328C259.96 19.3279 259.628 19.4057 259.336 19.5614C259.048 19.7138 258.819 19.9258 258.65 20.1976C258.484 20.466 258.401 20.7725 258.401 21.1172L258.4 25.9496L257.227 25.9493Z" fill="#1D1E25"/>
<rect x="1.18359" y="15.8784" width="12.2" height="10" rx="2" transform="rotate(0.0158183 1.18359 15.8784)" fill="#2280FF"/>
<path d="M24.3764 15.7028L25.848 15.7032L29.3059 24.1559L29.4252 24.1559L32.8877 15.7051L34.3593 15.7056L34.3565 25.8874L33.2031 25.8871L33.2052 18.1513L33.1058 18.1512L29.9219 25.8861L28.8082 25.8858L25.6285 18.1492L25.5291 18.1491L25.527 25.8849L24.3736 25.8846L24.3764 15.7028ZM36.9244 28.7517C36.7256 28.7517 36.5483 28.735 36.3925 28.7019C36.2367 28.672 36.129 28.6421 36.0694 28.6123L36.3679 27.5783C36.653 27.6513 36.9048 27.6778 37.1236 27.658C37.3424 27.6382 37.5363 27.5405 37.7054 27.3649C37.8778 27.1926 38.0353 26.9125 38.1779 26.5248L38.3968 25.9283L35.5751 18.2513L36.8478 18.2517L38.9541 24.3375L39.0336 24.3375L41.1432 18.2529L42.416 18.2532L39.1721 27.0023C39.0261 27.3967 38.8454 27.7231 38.6299 27.9816C38.4144 28.2434 38.1641 28.4372 37.879 28.5631C37.5973 28.6889 37.2791 28.7518 36.9244 28.7517ZM46.8992 28.7545L46.9021 18.2545L48.0356 18.2548L48.0353 19.4679L48.1745 19.4679C48.2607 19.3353 48.3801 19.1663 48.5326 18.9609C48.6884 18.7521 48.9106 18.5666 49.199 18.4043C49.4907 18.2386 49.8851 18.1559 50.3823 18.156C51.0253 18.1562 51.592 18.3171 52.0824 18.6387C52.5729 18.9603 52.9555 19.4162 53.2305 20.0062C53.5054 20.5963 53.6428 21.2923 53.6425 22.0944C53.6423 22.9031 53.5046 23.6041 53.2293 24.1973C52.9541 24.7872 52.5728 25.2444 52.0855 25.5691C51.5982 25.8905 51.0363 26.0511 50.4 26.0509C49.9094 26.0508 49.5167 25.9694 49.2218 25.807C48.9268 25.6412 48.6998 25.4538 48.5408 25.245C48.3818 25.0328 48.2592 24.8571 48.1731 24.7179L48.0736 24.7179L48.0725 28.7548L46.8992 28.7545ZM48.0545 22.073C48.0543 22.6497 48.1387 23.1585 48.3076 23.5993C48.4765 24.0369 48.7233 24.38 49.0481 24.6286C49.3728 24.874 49.7705 24.9967 50.2412 24.9969C50.7317 24.997 51.1411 24.8679 51.4693 24.6094C51.8008 24.3477 52.0494 23.9964 52.2153 23.5557C52.3844 23.1116 52.4691 22.6178 52.4692 22.0742C52.4694 21.5373 52.3867 21.0533 52.2211 20.6224C52.0588 20.1882 51.812 19.8451 51.4806 19.5931C51.1525 19.3378 50.7399 19.2101 50.2428 19.2099C49.7655 19.2098 49.3644 19.3307 49.0395 19.5725C48.7147 19.8111 48.4693 20.1458 48.3035 20.5766C48.1376 21.0041 48.0546 21.5029 48.0545 22.073ZM54.9313 25.8931L54.9334 18.2567L56.0669 18.257L56.0666 19.4104L56.1461 19.4104C56.2854 19.0326 56.5374 18.7261 56.9021 18.4909C57.2667 18.2557 57.6777 18.1381 58.1351 18.1383C58.2213 18.1383 58.329 18.14 58.4583 18.1433C58.5875 18.1467 58.6853 18.1517 58.7516 18.1583L58.7512 19.3515C58.7115 19.3415 58.6203 19.3266 58.4778 19.3067C58.3386 19.2834 58.1911 19.2718 58.0354 19.2718C57.6641 19.2716 57.3327 19.3494 57.041 19.5051C56.7526 19.6575 56.5238 19.8696 56.3547 20.1413C56.1889 20.4097 56.106 20.7163 56.1059 21.061L56.1046 25.8934L54.9313 25.8931ZM62.5101 26.0542C61.8207 26.054 61.2158 25.8898 60.6956 25.5615C60.1786 25.2333 59.7744 24.7741 59.4829 24.1841C59.1947 23.594 59.0507 22.9046 59.0509 22.1158C59.0511 21.3203 59.1955 20.626 59.484 20.0328C59.7758 19.4396 60.1803 18.979 60.6975 18.651C61.2179 18.3231 61.8228 18.1592 62.5122 18.1594C63.2016 18.1595 63.8048 18.3238 64.3218 18.652C64.842 18.9803 65.2463 19.4411 65.5344 20.0345C65.8259 20.6278 65.9716 21.3222 65.9714 22.1177C65.9711 22.9065 65.8251 23.5959 65.5333 24.1858C65.2448 24.7756 64.8403 25.2346 64.3198 25.5625C63.8027 25.8905 63.1994 26.0544 62.5101 26.0542ZM62.5103 25.0003C63.034 25.0004 63.4649 24.8663 63.8031 24.5979C64.1412 24.3295 64.3915 23.9766 64.5541 23.5392C64.7166 23.1017 64.7979 22.6278 64.7981 22.1174C64.7982 21.607 64.7171 21.1313 64.5549 20.6905C64.3926 20.2496 64.1424 19.8932 63.8044 19.6214C63.4664 19.3495 63.0356 19.2135 62.5119 19.2133C61.9883 19.2132 61.5574 19.349 61.2192 19.6206C60.8811 19.8923 60.6307 20.2486 60.4682 20.6893C60.3057 21.1301 60.2243 21.6057 60.2242 22.1161C60.2241 22.6265 60.3051 23.1005 60.4674 23.538C60.6297 23.9756 60.8798 24.3286 61.2178 24.5972C61.5558 24.8658 61.9867 25.0001 62.5103 25.0003ZM70.1448 26.0563C69.5085 26.0562 68.9467 25.8953 68.4596 25.5736C67.9725 25.2487 67.5914 24.7912 67.3165 24.2012C67.0416 23.6078 66.9042 22.9068 66.9044 22.0981C66.9047 21.296 67.0424 20.6 67.3177 20.0101C67.5929 19.4202 67.9758 18.9646 68.4665 18.6432C68.9571 18.3219 69.5239 18.1613 70.1669 18.1615C70.664 18.1616 71.0568 18.2446 71.3451 18.4104C71.6367 18.5729 71.8587 18.7585 72.0111 18.9674C72.1668 19.1729 72.2878 19.342 72.3739 19.4746L72.4733 19.4746L72.4744 15.7161L73.6477 15.7164L73.6449 25.8982L72.5113 25.8979L72.5117 24.7246L72.3725 24.7246C72.2862 24.8638 72.1636 25.0394 72.0044 25.2515C71.8453 25.4602 71.6182 25.6474 71.3232 25.8131C71.0281 25.9754 70.6353 26.0565 70.1448 26.0563ZM70.3042 25.0024C70.7748 25.0025 71.1726 24.88 71.4975 24.6348C71.8224 24.3864 72.0694 24.0434 72.2385 23.6059C72.4077 23.1652 72.4923 22.6564 72.4925 22.0797C72.4927 21.5096 72.4099 21.0108 72.2443 20.5832C72.0787 20.1523 71.8336 19.8175 71.5088 19.5787C71.1841 19.3367 70.7831 19.2156 70.3058 19.2155C69.8086 19.2153 69.3943 19.3428 69.0628 19.5979C68.7346 19.8498 68.4876 20.1927 68.3217 20.6269C68.1592 21.0577 68.0779 21.5416 68.0777 22.0785C68.0776 22.6221 68.1603 23.1159 68.3259 23.5601C68.4948 24.001 68.7433 24.3524 69.0714 24.6143C69.4027 24.8729 69.8137 25.0023 70.3042 25.0024ZM80.27 22.7779L80.2713 18.2637L81.4446 18.264L81.4424 25.9004L80.2692 25.9L80.2695 24.6074L80.19 24.6074C80.0109 24.9951 79.7324 25.3249 79.3545 25.5965C78.9765 25.8649 78.4992 25.999 77.9225 25.9988C77.4453 25.9987 77.021 25.8942 76.6499 25.6853C76.2787 25.473 75.9872 25.1548 75.7752 24.7305C75.5632 24.3029 75.4572 23.7643 75.4574 23.1146L75.4588 18.2624L76.6321 18.2627L76.6307 23.0354C76.6306 23.5922 76.7862 24.0364 77.0977 24.3679C77.4125 24.6994 77.8135 24.8653 78.3007 24.8654C78.5924 24.8655 78.889 24.791 79.1907 24.6419C79.4956 24.4929 79.7509 24.2643 79.9565 23.9561C80.1654 23.6479 80.2699 23.2552 80.27 22.7779ZM86.1936 26.0608C85.4777 26.0606 84.8613 25.8914 84.3444 25.5532C83.8274 25.215 83.4298 24.7492 83.1516 24.1558C82.8733 23.5625 82.7343 22.8846 82.7345 22.1223C82.7347 21.3468 82.8774 20.6624 83.1626 20.0692C83.4511 19.4727 83.8523 19.0071 84.3661 18.6725C84.8833 18.3346 85.4865 18.1657 86.1759 18.1659C86.7129 18.166 87.1967 18.2656 87.6276 18.4646C88.0584 18.6636 88.4113 18.9421 88.6863 19.3001C88.9613 19.6581 89.1318 20.0758 89.198 20.5531L88.0247 20.5528C87.9353 20.2047 87.7365 19.8964 87.4284 19.6279C87.1235 19.356 86.7126 19.22 86.1955 19.2199C85.7381 19.2197 85.3371 19.3389 84.9923 19.5775C84.6509 19.8127 84.384 20.1457 84.1916 20.5766C84.0026 21.0041 83.908 21.5062 83.9078 22.0829C83.9076 22.6728 84.0003 23.1866 84.1858 23.6241C84.3746 24.0617 84.6397 24.4015 84.981 24.6435C85.3256 24.8856 85.7299 25.0067 86.1939 25.0068C86.4989 25.0069 86.7756 24.9539 87.0242 24.8479C87.2728 24.7419 87.4833 24.5895 87.6558 24.3907C87.8282 24.1919 87.9509 23.9533 88.0238 23.6749L89.1971 23.6752C89.1307 24.126 88.9666 24.5319 88.7046 24.8931C88.446 25.251 88.1029 25.536 87.6753 25.748C87.251 25.9567 86.7571 26.0609 86.1936 26.0608ZM93.7349 18.2674L93.7346 19.2617L89.7772 19.2606L89.7775 18.2663L93.7349 18.2674ZM90.9314 16.4371L92.1047 16.4374L92.1027 23.7158C92.1026 24.0473 92.1506 24.2958 92.2466 24.4616C92.346 24.624 92.4719 24.7334 92.6244 24.7898C92.7802 24.8429 92.9442 24.8695 93.1166 24.8695C93.2458 24.8695 93.3519 24.8629 93.4347 24.8497C93.5176 24.8332 93.5839 24.8199 93.6336 24.81L93.872 25.864C93.7924 25.8938 93.6814 25.9236 93.5388 25.9534C93.3963 25.9865 93.2157 26.0031 92.9969 26.003C92.6655 26.0029 92.3407 25.9316 92.0226 25.7889C91.7077 25.6463 91.4459 25.4292 91.2372 25.1375C91.0318 24.8457 90.9292 24.4778 90.9293 24.0337L90.9314 16.4371Z" fill="#1D1E25"/>
</g>
<defs>
<filter id="filter0_d_1_2553" x="166.053" y="32.9336" width="116.007" height="82.0132" filterUnits="userSpaceOnUse" color-interpolation-filters="sRGB">
<feFlood flood-opacity="0" result="BackgroundImageFix"/>
<feColorMatrix in="SourceAlpha" type="matrix" values="0 0 0 0 0 0 0 0 0 0 0 0 0 0 0 0 0 0 127 0" result="hardAlpha"/>
<feOffset dy="4"/>
<feGaussianBlur stdDeviation="11"/>
<feComposite in2="hardAlpha" operator="out"/>
<feColorMatrix type="matrix" values="0 0 0 0 0.624722 0 0 0 0 0.6401 0 0 0 0 0.720833 0 0 0 0.25 0"/>
<feBlend mode="multiply" in2="BackgroundImageFix" result="effect1_dropShadow_1_2553"/>
<feBlend mode="normal" in="SourceGraphic" in2="effect1_dropShadow_1_2553" result="shape"/>
</filter>
<filter id="filter1_d_1_2553" x="168.052" y="82.9277" width="22" height="22" filterUnits="userSpaceOnUse" color-interpolation-filters="sRGB">
<feFlood flood-opacity="0" result="BackgroundImageFix"/>
<feColorMatrix in="SourceAlpha" type="matrix" values="0 0 0 0 0 0 0 0 0 0 0 0 0 0 0 0 0 0 127 0" result="hardAlpha"/>
<feOffset dy="2"/>
<feGaussianBlur stdDeviation="2"/>
<feColorMatrix type="matrix" values="0 0 0 0 0.268354 0 0 0 0 0.268354 0 0 0 0 0.31049 0 0 0 0.15 0"/>
<feBlend mode="normal" in2="BackgroundImageFix" result="effect1_dropShadow_1_2553"/>
<feBlend mode="normal" in="SourceGraphic" in2="effect1_dropShadow_1_2553" result="shape"/>
</filter>
<linearGradient id="paint0_linear_1_2553" x1="180.513" y1="54.9281" x2="180.462" y2="237.928" gradientUnits="userSpaceOnUse">
<stop stop-color="#2A85FF"/>
<stop offset="1" stop-color="#2A85FF" stop-opacity="0"/>
</linearGradient>
<clipPath id="clip0_1_2553">
<rect width="366" height="260" fill="white" transform="translate(0.577637 0.878418) rotate(0.0158183)"/>
</clipPath>
<clipPath id="clip1_1_2553">
<rect width="26.84" height="206" fill="white" transform="translate(325.692 54.9683) rotate(0.0158183)"/>
</clipPath>
<clipPath id="clip2_1_2553">
<rect width="29.28" height="206" fill="white" transform="translate(272.013 54.9536) rotate(0.0158183)"/>
</clipPath>
<clipPath id="clip3_1_2553">
<rect width="30.5" height="206" fill="white" transform="translate(217.113 54.9385) rotate(0.0158183)"/>
</clipPath>
<clipPath id="clip4_1_2553">
<rect width="48.8" height="206" fill="white" transform="translate(156.113 54.9214) rotate(0.0158183)"/>
</clipPath>
<clipPath id="clip5_1_2553">
<rect width="29.28" height="206" fill="white" transform="translate(114.633 54.9102) rotate(0.0158183)"/>
</clipPath>
<clipPath id="clip6_1_2553">
<rect width="32.94" height="206" fill="white" transform="translate(57.2925 54.894) rotate(0.0158183)"/>
</clipPath>
<clipPath id="clip7_1_2553">
<rect width="28.06" height="206" fill="white" transform="translate(4.83301 54.8799) rotate(0.0158183)"/>
</clipPath>
<clipPath id="clip8_1_2553">
<rect width="29.28" height="24" fill="white" transform="translate(-0.0844727 188.878) rotate(0.0158183)"/>
</clipPath>
<clipPath id="clip9_1_2553">
<rect width="29.28" height="24" fill="white" transform="translate(-0.0751953 154.878) rotate(0.0158183)"/>
</clipPath>
<clipPath id="clip10_1_2553">
<rect width="29.28" height="24" fill="white" transform="translate(-0.0654297 120.878) rotate(0.0158183)"/>
</clipPath>
<clipPath id="clip11_1_2553">
<rect width="29.28" height="24" fill="white" transform="translate(-0.0561523 86.8784) rotate(0.0158183)"/>
</clipPath>
</defs>
</svg>
